TITLE ""
FILE "P1Q_t_0950-0959.mp3" MP3
  TRACK 01 AUDIO
    TITLE "P1Q_t_0950-0959_01"
    INDEX 01 00:00:00
  TRACK 02 AUDIO
    TITLE "P1Q_t_0950-0959_02"
    INDEX 01 00:01:16
  TRACK 03 AUDIO
    TITLE "P1Q_t_0950-0959_03"
    INDEX 01 00:01:37
  TRACK 04 AUDIO
    TITLE "P1Q_t_0950-0959_04"
    INDEX 01 00:03:52
  TRACK 05 AUDIO
    TITLE "P1Q_t_0950-0959_05"
    INDEX 01 00:03:73
  TRACK 06 AUDIO
    TITLE "P1Q_t_0950-0959_06"
    INDEX 01 00:08:08
  TRACK 07 AUDIO
    TITLE "P1Q_t_0950-0959_07"
    INDEX 01 00:08:55
  TRACK 08 AUDIO
    TITLE "P1Q_t_0950-0959_08"
    INDEX 01 00:09:60
  TRACK 09 AUDIO
    TITLE "P1Q_t_0950-0959_09"
    INDEX 01 00:10:09
  TRACK 10 AUDIO
    TITLE "P1Q_t_0950-0959_10"
    INDEX 01 00:12:21
  TRACK 11 AUDIO
    TITLE "P1Q_t_0950-0959_11"
    INDEX 01 00:12:41
  TRACK 12 AUDIO
    TITLE "P1Q_t_0950-0959_12"
    INDEX 01 00:16:17
  TRACK 13 AUDIO
    TITLE "P1Q_t_0950-0959_13"
    INDEX 01 00:16:66
  TRACK 14 AUDIO
    TITLE "P1Q_t_0950-0959_14"
    INDEX 01 00:18:08
  TRACK 15 AUDIO
    TITLE "P1Q_t_0950-0959_15"
    INDEX 01 00:18:30
  TRACK 16 AUDIO
    TITLE "P1Q_t_0950-0959_16"
    INDEX 01 00:21:24
  TRACK 17 AUDIO
    TITLE "P1Q_t_0950-0959_17"
    INDEX 01 00:21:44
  TRACK 18 AUDIO
    TITLE "P1Q_t_0950-0959_18"
    INDEX 01 00:26:08
  TRACK 19 AUDIO
    TITLE "P1Q_t_0950-0959_19"
    INDEX 01 00:26:57
  TRACK 20 AUDIO
    TITLE "P1Q_t_0950-0959_20"
    INDEX 01 00:28:05
  TRACK 21 AUDIO
    TITLE "P1Q_t_0950-0959_21"
    INDEX 01 00:28:26
  TRACK 22 AUDIO
    TITLE "P1Q_t_0950-0959_22"
    INDEX 01 00:30:33
  TRACK 23 AUDIO
    TITLE "P1Q_t_0950-0959_23"
    INDEX 01 00:30:54
  TRACK 24 AUDIO
    TITLE "P1Q_t_0950-0959_24"
    INDEX 01 00:35:15
  TRACK 25 AUDIO
    TITLE "P1Q_t_0950-0959_25"
    INDEX 01 00:35:60
  TRACK 26 AUDIO
    TITLE "P1Q_t_0950-0959_26"
    INDEX 01 00:36:71
  TRACK 27 AUDIO
    TITLE "P1Q_t_0950-0959_27"
    INDEX 01 00:37:19
  TRACK 28 AUDIO
    TITLE "P1Q_t_0950-0959_28"
    INDEX 01 00:39:26
  TRACK 29 AUDIO
    TITLE "P1Q_t_0950-0959_29"
    INDEX 01 00:39:46
  TRACK 30 AUDIO
    TITLE "P1Q_t_0950-0959_30"
    INDEX 01 00:45:21
  TRACK 31 AUDIO
    TITLE "P1Q_t_0950-0959_31"
    INDEX 01 00:45:68
  TRACK 32 AUDIO
    TITLE "P1Q_t_0950-0959_32"
    INDEX 01 00:47:12
  TRACK 33 AUDIO
    TITLE "P1Q_t_0950-0959_33"
    INDEX 01 00:47:33
  TRACK 34 AUDIO
    TITLE "P1Q_t_0950-0959_34"
    INDEX 01 00:50:08
  TRACK 35 AUDIO
    TITLE "P1Q_t_0950-0959_35"
    INDEX 01 00:50:28
  TRACK 36 AUDIO
    TITLE "P1Q_t_0950-0959_36"
    INDEX 01 00:55:33
  TRACK 37 AUDIO
    TITLE "P1Q_t_0950-0959_37"
    INDEX 01 00:56:03
  TRACK 38 AUDIO
    TITLE "P1Q_t_0950-0959_38"
    INDEX 01 00:57:14
  TRACK 39 AUDIO
    TITLE "P1Q_t_0950-0959_39"
    INDEX 01 00:57:32
  TRACK 40 AUDIO
    TITLE "P1Q_t_0950-0959_40"
    INDEX 01 01:00:12
  TRACK 41 AUDIO
    TITLE "P1Q_t_0950-0959_41"
    INDEX 01 01:00:30
  TRACK 42 AUDIO
    TITLE "P1Q_t_0950-0959_42"
    INDEX 01 01:05:16
  TRACK 43 AUDIO
    TITLE "P1Q_t_0950-0959_43"
    INDEX 01 01:05:65
  TRACK 44 AUDIO
    TITLE "P1Q_t_0950-0959_44"
    INDEX 01 01:06:72
  TRACK 45 AUDIO
    TITLE "P1Q_t_0950-0959_45"
    INDEX 01 01:07:18
  TRACK 46 AUDIO
    TITLE "P1Q_t_0950-0959_46"
    INDEX 01 01:08:39
  TRACK 47 AUDIO
    TITLE "P1Q_t_0950-0959_47"
    INDEX 01 01:08:59
  TRACK 48 AUDIO
    TITLE "P1Q_t_0950-0959_48"
    INDEX 01 01:14:03
  TRACK 49 AUDIO
    TITLE "P1Q_t_0950-0959_49"
    INDEX 01 01:14:50
  TRACK 50 AUDIO
    TITLE "P1Q_t_0950-0959_50"
    INDEX 01 01:15:69
  TRACK 51 AUDIO
    TITLE "P1Q_t_0950-0959_51"
    INDEX 01 01:16:17
  TRACK 52 AUDIO
    TITLE "P1Q_t_0950-0959_52"
    INDEX 01 01:19:47
  TRACK 53 AUDIO
    TITLE "P1Q_t_0950-0959_53"
    INDEX 01 01:19:67
  TRACK 54 AUDIO
    TITLE "P1Q_t_0950-0959_54"
    INDEX 01 01:26:14
  TRACK 55 AUDIO
    TITLE "P1Q_t_0950-0959_55"
    INDEX 01 01:26:61
  TRACK 56 AUDIO
    TITLE "P1Q_t_0950-0959_56"
    INDEX 01 01:27:70
  TRACK 57 AUDIO
    TITLE "P1Q_t_0950-0959_57"
    INDEX 01 01:28:17
  TRACK 58 AUDIO
    TITLE "P1Q_t_0950-0959_58"
    INDEX 01 01:29:61
  TRACK 59 AUDIO
    TITLE "P1Q_t_0950-0959_59"
    INDEX 01 01:30:08
  TRACK 60 AUDIO
    TITLE "P1Q_t_0950-0959_60"
    INDEX 01 01:33:57
